HIERARCHY
ROOT Hips
{
  OFFSET 3.13124 94.3669 -3.18751
  CHANNELS  6 Xposition Yposition Zposition Zrotation Xrotation Yrotation
  JOINT LeftUpLeg
  {
    OFFSET 8.64259 1.95398 -2.38835
    CHANNELS 3 Zrotation Xrotation Yrotation
    JOINT LeftLeg
    {
      OFFSET 43.7702 0 0
      CHANNELS 3 Zrotation Xrotation Yrotation
      JOINT LeftFoot
      {
        OFFSET 40.6238 0 0
        CHANNELS 3 Zrotation Xrotation Yrotation
        JOINT LeftToeBase
        {
          OFFSET 12.7242 0 0
          CHANNELS 3 Zrotation Xrotation Yrotation
          End Site
          {
            OFFSET 0 0 0
          }
        }
      }
    }
  }
  JOINT RightUpLeg
  {
    OFFSET -8.2249 1.95398 -2.59336
    CHANNELS 3 Zrotation Xrotation Yrotation
    JOINT RightLeg
    {
      OFFSET 43.5653 0 0
      CHANNELS 3 Zrotation Xrotation Yrotation
      JOINT RightFoot
      {
        OFFSET 40.6238 0 0
        CHANNELS 3 Zrotation Xrotation Yrotation
        JOINT RightToeBase
        {
          OFFSET 12.7242 0 0
          CHANNELS 3 Zrotation Xrotation Yrotation
          End Site
          {
            OFFSET 0 0 0
          }
        }
      }
    }
  }
  JOINT Spine
  {
    OFFSET 0.165834 0.87714 6.61349
    CHANNELS 3 Zrotation Xrotation Yrotation
    JOINT Spine1
    {
      OFFSET 7.38962 1.71661e-005 0
      CHANNELS 3 Zrotation Xrotation Yrotation
      JOINT Spine2
      {
        OFFSET 11.9445 1.14441e-005 0
        CHANNELS 3 Zrotation Xrotation Yrotation
        JOINT Spine3
        {
          OFFSET 14.7254 4.19617e-005 0
          CHANNELS 3 Zrotation Xrotation Yrotation
          JOINT Spine4
          {
            OFFSET 10.9679 0 0
            CHANNELS 3 Zrotation Xrotation Yrotation
            JOINT RightShoulder
            {
              OFFSET 2.46616 -1.6653 3.69651
              CHANNELS 3 Zrotation Xrotation Yrotation
              JOINT RightArm
              {
                OFFSET 13.0012 0 0
                CHANNELS 3 Zrotation Xrotation Yrotation
                JOINT RightForeArm
                {
                  OFFSET 28.7848 1.52588e-005 0
                  CHANNELS 3 Zrotation Xrotation Yrotation
                  JOINT RightHand
                  {
                    OFFSET 26.5688 1.52588e-005 0
                    CHANNELS 3 Zrotation Xrotation Yrotation
                    End Site
                    {
                      OFFSET 0 0 0
                    }
                  }
                }
              }
            }
            JOINT LeftShoulder
            {
              OFFSET 2.38034 -1.29275 -3.75231
              CHANNELS 3 Zrotation Xrotation Yrotation
              JOINT LeftArm
              {
                OFFSET 16.3182 6.10352e-005 0
                CHANNELS 3 Zrotation Xrotation Yrotation
                JOINT LeftForeArm
                {
                  OFFSET 27.0901 0 0
                  CHANNELS 3 Zrotation Xrotation Yrotation
                  JOINT LeftHand
                  {
                    OFFSET 24.5451 1.52588e-005 0
                    CHANNELS 3 Zrotation Xrotation Yrotation
                    End Site
                    {
                      OFFSET 0 0 0
                    }
                  }
                }
              }
            }
            JOINT Neck
            {
              OFFSET 5.0226 -0.0266342 0
              CHANNELS 3 Zrotation Xrotation Yrotation
              JOINT Head
              {
                OFFSET 6.69363 2.86102e-005 0
                CHANNELS 3 Zrotation Xrotation Yrotation
                End Site
                {
                  OFFSET 0 0 0
                }
              }
            }
          }
        }
      }
    }
  }
}
MOTION
Frames:	9
Frame Time:	0.0333333
-82.6605 90.9598 -99.5109 -90.458 -14.1639 -83.4505 178.157 40.8413 104.058 -35.8024 -56.0698 -5.37662 22.1756 6.85183 6.65705 28.7808 5.87908e-006 2.48788e-006 -178.451 16.0628 105.666 -37.618 41.7403 3.21335 67.1662 -9.2752 -5.04058 28.7808 1.55118e-005 2.78194e-005 -0.782005 7.09862 -90.14 12.702 -1.95984 1.19584 1.03194 -1.90533 1.28095 -21.5138 -2.22863 0.551331 -1.50116 -2.22862 0.55132 102.384 -28.5903 -81.611 6.57489 38.0827 -0.837129 11.5564 5.13755 -73.152 -13.8079 -0.35562 -2.25569 -88.0199 -61.6842 83.6003 -21.3045 -12.0248 -39.951 -7.96309 -6.2574 -63.9013 14.8737 -2.34213 -19.1397 -20.0652 25.4745 12.3086 -18.0273 19.6221 46.7553 
-83.852 91.1183 -98.3302 -90.1562 -12.8466 -82.6816 178.061 40.3711 104.221 -37.492 -58.4017 -5.96479 25.5296 4.99476 4.22913 28.7808 5.87908e-006 2.48788e-006 -178.104 14.8489 105.655 -36.5186 41.0473 3.14621 67.4154 -9.29577 -5.03056 28.7808 1.55118e-005 2.78194e-005 -0.794693 7.00901 -90.1325 12.8813 -1.94482 1.18889 1.21122 -1.89062 1.27334 -21.3343 -2.21223 0.549221 -1.3217 -2.2122 0.549216 102.064 -26.4809 -82.3015 5.41978 39.3648 0.154555 16.8649 6.63605 -74.5364 -11.9966 -0.151332 -3.83839 -86.0472 -64.9365 86.595 -23.3881 -7.5677 -39.5625 -6.07184 -5.74389 -60.979 14.1903 -2.30327 -19.4826 -20.0197 27.0133 15.7054 -17.7585 21.4376 46.6414 
-85.1134 91.4072 -97.0983 -89.8203 -11.7812 -82.3343 178.448 38.9948 103.613 -36.7607 -59.2814 -6.2388 29.7511 5.86141 4.96839 28.7808 5.87908e-006 2.48788e-006 -177.729 13.4184 105.197 -35.0105 40.2268 3.0631 67.5734 -9.17064 -4.94915 28.7808 1.55118e-005 2.78194e-005 -0.760783 6.90078 -90.0361 13.0954 -1.78414 1.27874 1.42494 -1.72609 1.35601 -21.1182 -2.08594 0.683275 -1.10557 -2.08592 0.683282 102.072 -24.402 -82.3036 4.20838 40.8328 -0.216175 23.3336 8.65932 -75.4495 -12.3986 0.242641 -7.6895 -84.2001 -67.2179 89.1652 -25.1105 -4.81698 -38.0195 -1.52845 -3.2281 -57.7375 9.2424 -1.6063 -19.1889 -19.9572 28.2624 18.2757 -17.8341 22.7511 46.7214 
-86.5315 91.7268 -95.7659 -89.5137 -11.493 -82.4543 178.595 38.2007 102.575 -37.4939 -60.4266 -6.58129 32.1855 5.03907 3.9866 28.7808 5.87908e-006 2.48788e-006 -177.396 11.7506 104.279 -33.4288 40.2772 3.1074 67.6943 -9.16742 -4.93871 28.7808 1.55118e-005 2.78194e-005 -0.715746 6.78029 -89.9376 13.3351 -1.61474 1.45528 1.66429 -1.54911 1.52492 -20.8759 -1.97742 0.902652 -0.863258 -1.97743 0.902638 101.872 -22.3894 -82.7891 1.92316 43.1642 -0.877181 27.4932 10.3887 -75.4046 -14.5321 0.789105 -11.7629 -81.9056 -68.7125 92.1279 -26.7556 -3.02301 -37.3206 2.0713 -0.718393 -52.5526 3.44805 -0.832391 -18.8889 -20.5525 28.8815 20.7062 -17.4532 23.7361 46.6134 
-88.0927 92.0592 -94.4318 -89.0763 -11.622 -82.6616 178.718 37.4776 101.375 -38.1741 -60.6588 -6.65 34.645 3.94667 2.81749 28.7808 5.87908e-006 2.48788e-006 -177.027 9.86145 103.296 -31.3156 40.5006 3.18212 67.7827 -9.30344 -5.00602 28.7808 1.55118e-005 2.78194e-005 -0.663546 6.66323 -89.8568 13.5679 -1.4415 1.62723 1.89671 -1.3685 1.68906 -20.6404 -1.86384 1.11878 -0.627775 -1.86388 1.11876 101.88 -20.0357 -82.8186 0.169954 45.1625 -2.7651 29.3477 11.7599 -74.6318 -16.9482 1.53672 -15.9945 -79.0612 -69.8569 95.6679 -28.0171 -2.58417 -38.3041 5.53815 3.14367 -44.5349 -1.21452 -0.238584 -19.3897 -20.7417 29.3375 23.0133 -17.232 24.5815 45.5578 
-89.7755 92.333 -93.1891 -88.296 -11.7485 -82.6099 178.815 36.8846 100.461 -38.5158 -59.8472 -6.40045 37.9181 2.79481 1.68368 28.7808 5.87908e-006 2.48788e-006 -176.66 8.16759 102.595 -28.9337 40.489 3.20052 67.5941 -9.39014 -5.0702 28.7808 1.55118e-005 2.78194e-005 -0.542796 6.45757 -89.8275 13.9751 -1.15596 1.69058 2.30348 -1.08048 1.73981 -20.2303 -1.61056 1.26508 -0.217647 -1.61059 1.26507 101.634 -17.449 -83.5029 -1.58627 47.9721 -4.84211 33.4353 13.0395 -75.5047 -18.784 1.31302 -13.4128 -75.7303 -70.7461 99.7206 -29.0332 -3.54954 -41.9873 8.03204 10.855 -29.9156 -3.28647 0.0741901 -25.5249 -21.8352 29.1721 25.5275 -16.4229 25.4245 43.1961 
-91.6278 92.4628 -91.8488 -88.1513 -12.198 -82.9451 178.9 35.8409 99.2142 -39.6881 -59.062 -6.15628 41.0597 0.714775 -0.137381 28.7808 5.87908e-006 2.48788e-006 -176.354 5.71528 101.686 -26.6867 40.673 3.21667 67.9165 -9.09451 -4.89342 28.7808 1.55118e-005 2.78194e-005 -0.388443 6.30978 -89.7698 14.2648 -0.775855 1.82499 2.59281 -0.694779 1.85735 -19.9367 -1.28839 1.50756 0.0759781 -1.28841 1.50756 101.342 -14.7657 -84.3905 -3.33853 50.3589 -6.44021 35.8021 14.088 -75.6815 -14.7352 0.470536 -9.21244 -72.7556 -71.3894 103.286 -29.0852 -5.69237 -48.7972 5.13032 22.1926 -9.95469 -0.182028 -0.52732 -27.1227 -23.1094 28.8822 27.194 -15.8257 26.1286 40.5313 
-93.559 92.5793 -90.6127 -87.7765 -13.4244 -83.1208 179.042 34.6661 97.9219 -40.1177 -57.653 -5.76351 44.3746 -1.73127 -2.05266 28.7808 5.87908e-006 2.48788e-006 -175.887 3.16373 101.128 -23.7436 41.8581 3.32845 67.4306 -9.15623 -4.97495 28.7808 1.55118e-005 2.78194e-005 -0.251044 6.13638 -89.7297 14.6061 -0.433859 1.93901 2.93371 -0.348116 1.95621 -19.5924 -0.996469 1.7191 0.420207 -0.996465 1.71909 101.091 -11.7017 -85.3031 -4.3439 51.4551 -10.2098 36.8155 16.7191 -73.5395 -11.1584 0.972687 -15.7309 -69.916 -71.7098 106.67 -27.7545 -7.93722 -47.5507 2.95751 29.1398 -3.91836 2.44657 -0.903435 -23.5545 -24.5339 28.5165 28.1918 -15.4074 26.7459 37.5587 
-95.6119 92.4002 -89.3212 -87.9164 -15.4089 -83.3338 178.932 34.639 96.8793 -43.1844 -55.129 -5.0871 45.4306 -5.08231 -4.68062 28.7808 5.87908e-006 2.48788e-006 -175.571 0.792743 100.873 -22.5381 43.9356 3.58586 67.0453 -8.80428 -4.83183 28.7808 1.55118e-005 2.78194e-005 -0.081739 6.02092 -89.7987 14.8306 -0.080809 1.9645 3.15813 0.00569398 1.96615 -19.3662 -0.667367 1.84947 0.646491 -0.667371 1.84947 100.716 -7.65477 -86.8611 -4.89616 52.0873 -15.3031 36.5209 19.8301 -70.2849 -15.7045 2.18246 -21.7286 -66.7629 -72.0554 110.397 -25.873 -10.0597 -42.9164 3.27748 34.4096 -4.34627 4.13027 -0.834756 -17.2924 -26.019 27.7984 29.207 -15.0333 27.131 33.6082 
